<?xml version="1.0" encoding="UTF-8"?>
<svg version="1.1" xmlns="http://www.w3.org/2000/svg" width="314" height="293">
<path d="M0 0 C1.12591553 0.00523682 2.25183105 0.01047363 3.41186523 0.01586914 C4.62680664 0.0190918 5.84174805 0.02231445 7.09350586 0.02563477 C8.37290039 0.03401367 9.65229492 0.04239258 10.97045898 0.05102539 C12.2537207 0.05553711 13.53698242 0.06004883 14.85913086 0.06469727 C18.04211921 0.07652994 21.22501661 0.09301471 24.40795898 0.11352539 C24.40795898 0.77352539 24.40795898 1.43352539 24.40795898 2.11352539 C24.99061523 2.09032227 25.57327148 2.06711914 26.17358398 2.04321289 C33.10875001 1.890552 39.6067451 2.80470073 46.40795898 4.11352539 C46.40795898 4.77352539 46.40795898 5.43352539 46.40795898 6.11352539 C47.58358398 6.21665039 48.75920898 6.31977539 49.97045898 6.42602539 C54.24914297 6.94948141 57.51904725 8.28344928 61.40795898 10.11352539 C62.39795898 10.44352539 63.38795898 10.77352539 64.40795898 11.11352539 C64.40795898 11.77352539 64.40795898 12.43352539 64.40795898 13.11352539 C66.38795898 13.44352539 68.36795898 13.77352539 70.40795898 14.11352539 C70.40795898 14.77352539 70.40795898 15.43352539 70.40795898 16.11352539 C71.12983398 16.21665039 71.85170898 16.31977539 72.59545898 16.42602539 C78.09521737 17.77041077 83.04115392 21.55669224 87.40795898 25.11352539 C87.73795898 25.77352539 88.06795898 26.43352539 88.40795898 27.11352539 C89.39795898 27.44352539 90.38795898 27.77352539 91.40795898 28.11352539 C91.40795898 28.77352539 91.40795898 29.43352539 91.40795898 30.11352539 C91.98843994 30.20649902 92.5689209 30.29947266 93.16699219 30.39526367 C95.94130701 31.28447101 97.21362094 32.54640317 99.26342773 34.60571289 C99.96790039 35.31083008 100.67237305 36.01594727 101.39819336 36.74243164 C102.12329102 37.48364258 102.84838867 38.22485352 103.59545898 38.98852539 C104.3321582 39.72200195 105.06885742 40.45547852 105.82788086 41.21118164 C111.27438438 46.71280157 111.27438438 46.71280157 112.40795898 50.11352539 C113.39795898 50.77352539 114.38795898 51.43352539 115.40795898 52.11352539 C115.40795898 52.77352539 115.40795898 53.43352539 115.40795898 54.11352539 C116.06795898 54.44352539 116.72795898 54.77352539 117.40795898 55.11352539 C119.40795898 58.11352539 119.40795898 58.11352539 119.40795898 61.11352539 C120.39795898 61.44352539 121.38795898 61.77352539 122.40795898 62.11352539 C123.57592773 63.63696289 123.57592773 63.63696289 124.59545898 65.48852539 C124.93963867 66.09438477 125.28381836 66.70024414 125.63842773 67.32446289 C126.40795898 69.11352539 126.40795898 69.11352539 126.40795898 72.11352539 C127.06795898 72.11352539 127.72795898 72.11352539 128.40795898 72.11352539 C128.73795898 74.09352539 129.06795898 76.07352539 129.40795898 78.11352539 C130.06795898 78.11352539 130.72795898 78.11352539 131.40795898 78.11352539 C132.6008331 81.99036626 133.40795898 85.02974463 133.40795898 89.11352539 C134.06795898 89.11352539 134.72795898 89.11352539 135.40795898 89.11352539 C135.73795898 92.41352539 136.06795898 95.71352539 136.40795898 99.11352539 C137.06795898 99.11352539 137.72795898 99.11352539 138.40795898 99.11352539 C139.87037966 106.86577479 140.73993048 114.49625839 141.16186523 122.37524414 C141.10504673 125.02427134 141.10504673 125.02427134 142.40795898 126.11352539 C142.50425496 127.85979063 142.52983437 129.60998444 142.5282135 131.35890198 C142.5302755 133.06483017 142.5302755 133.06483017 142.53237915 134.80522156 C142.52878387 136.06397598 142.5251886 137.32273041 142.52148438 138.61962891 C142.5216304 139.93650696 142.52177643 141.25338501 142.52192688 142.61016846 C142.52221485 146.23190807 142.51631822 149.85361485 142.50935292 153.4753468 C142.50311928 157.25634423 142.50251558 161.03734234 142.50132751 164.81834412 C142.49821423 171.98296829 142.49000088 179.14757729 142.47997802 186.31219476 C142.4688168 194.46683701 142.46330642 202.62147996 142.45828259 210.77612793 C142.44781826 227.55526932 142.43021887 244.33439542 142.40795898 261.11352539 C141.74795898 261.11352539 141.08795898 261.11352539 140.40795898 261.11352539 C140.40795898 261.77352539 140.40795898 262.43352539 140.40795898 263.11352539 C92.55795898 263.11352539 44.70795898 263.11352539 -4.59204102 263.11352539 C-4.59204102 262.45352539 -4.59204102 261.79352539 -4.59204102 261.11352539 C-6.35547852 261.14446289 -6.35547852 261.14446289 -8.15454102 261.17602539 C-15.07572706 261.13966189 -20.59990314 259.83986299 -26.94750977 257.16821289 C-31.07435732 255.5223505 -35.31797594 254.31390111 -39.59204102 253.11352539 C-39.59204102 252.45352539 -39.59204102 251.79352539 -39.59204102 251.11352539 C-41.90204102 250.78352539 -44.21204102 250.45352539 -46.59204102 250.11352539 C-46.59204102 249.45352539 -46.59204102 248.79352539 -46.59204102 248.11352539 C-47.37579102 247.96915039 -48.15954102 247.82477539 -48.96704102 247.67602539 C-51.59204102 247.11352539 -51.59204102 247.11352539 -53.59204102 246.11352539 C-53.59204102 245.45352539 -53.59204102 244.79352539 -53.59204102 244.11352539 C-54.29329102 244.03102539 -54.99454102 243.94852539 -55.71704102 243.86352539 C-59.28238622 242.93343534 -61.68219673 241.3466617 -64.59204102 239.11352539 C-64.59204102 238.45352539 -64.59204102 237.79352539 -64.59204102 237.11352539 C-65.47569336 236.95303711 -65.47569336 236.95303711 -66.37719727 236.78930664 C-68.88061489 236.02547728 -70.1068868 235.05494783 -72.02954102 233.30102539 C-74.05725998 231.48083417 -76.04576773 229.76782885 -78.21704102 228.11352539 C-80.19569051 226.44729424 -81.66137544 224.91217031 -83.27954102 222.92602539 C-85.28594352 220.09705306 -85.28594352 220.09705306 -87.59204102 219.11352539 C-88.59204102 217.44685872 -89.59204102 215.78019206 -90.59204102 214.11352539 C-91.47237449 213.03814797 -92.36875937 211.97573983 -93.27954102 210.92602539 C-95.59204102 208.11352539 -95.59204102 208.11352539 -95.59204102 206.11352539 C-96.25204102 206.11352539 -96.91204102 206.11352539 -97.59204102 206.11352539 C-97.92204102 205.12352539 -98.25204102 204.13352539 -98.59204102 203.11352539 C-99.25204102 202.78352539 -99.91204102 202.45352539 -100.59204102 202.11352539 C-102.16752785 199.48771401 -102.59204102 198.24252752 -102.59204102 195.11352539 C-103.25204102 195.11352539 -103.91204102 195.11352539 -104.59204102 195.11352539 C-104.92204102 193.13352539 -105.25204102 191.15352539 -105.59204102 189.11352539 C-106.25204102 189.11352539 -106.91204102 189.11352539 -107.59204102 189.11352539 C-108.84869079 186.20752278 -109.59204102 184.31747955 -109.59204102 181.11352539 C-110.25204102 181.11352539 -110.91204102 181.11352539 -111.59204102 181.11352539 C-111.92204102 178.14352539 -112.25204102 175.17352539 -112.59204102 172.11352539 C-113.25204102 172.11352539 -113.91204102 172.11352539 -114.59204102 172.11352539 C-116.05874215 166.8884026 -116.81781504 162.53210199 -116.59204102 157.11352539 C-117.25204102 157.11352539 -117.91204102 157.11352539 -118.59204102 157.11352539 C-119.45286564 151.91181948 -119.73916588 146.91989444 -119.72485352 141.65258789 C-119.72581024 140.86258392 -119.72676697 140.07257996 -119.72775269 139.25863647 C-119.72842956 137.59633301 -119.72660983 135.93402682 -119.72241211 134.27172852 C-119.71707125 131.75278663 -119.72236653 129.2340242 -119.72875977 126.71508789 C-119.72809862 125.0900875 -119.7268167 123.46508723 -119.72485352 121.84008789 C-119.72687775 121.09916901 -119.72890198 120.35825012 -119.73098755 119.59487915 C-119.70803355 114.37009517 -119.23679174 109.29906276 -118.59204102 104.11352539 C-117.93204102 104.11352539 -117.27204102 104.11352539 -116.59204102 104.11352539 C-116.53145508 103.36586914 -116.47086914 102.61821289 -116.40844727 101.84790039 C-116.3246582 100.86305664 -116.24086914 99.87821289 -116.15454102 98.86352539 C-116.07333008 97.88899414 -115.99211914 96.91446289 -115.90844727 95.91040039 C-115.64129518 93.54890786 -115.23832133 91.39451474 -114.59204102 89.11352539 C-113.93204102 89.11352539 -113.27204102 89.11352539 -112.59204102 89.11352539 C-112.26204102 86.80352539 -111.93204102 84.49352539 -111.59204102 82.11352539 C-110.93204102 82.11352539 -110.27204102 82.11352539 -109.59204102 82.11352539 C-108.93204102 78.81352539 -108.27204102 75.51352539 -107.59204102 72.11352539 C-106.93204102 72.11352539 -106.27204102 72.11352539 -105.59204102 72.11352539 C-105.26204102 70.79352539 -104.93204102 69.47352539 -104.59204102 68.11352539 C-103.93204102 68.11352539 -103.27204102 68.11352539 -102.59204102 68.11352539 C-102.46829102 67.14415039 -102.34454102 66.17477539 -102.21704102 65.17602539 C-102.01079102 64.16540039 -101.80454102 63.15477539 -101.59204102 62.11352539 C-100.60204102 61.61852539 -100.60204102 61.61852539 -99.59204102 61.11352539 C-98.26190346 58.8702901 -97.09689293 56.56343995 -95.90844727 54.24243164 C-94.59204102 52.11352539 -94.59204102 52.11352539 -91.59204102 50.11352539 C-91.26204102 49.12352539 -90.93204102 48.13352539 -90.59204102 47.11352539 C-89.93204102 47.11352539 -89.27204102 47.11352539 -88.59204102 47.11352539 C-88.32109619 46.51805908 -88.05015137 45.92259277 -87.77099609 45.30908203 C-86.60831419 43.14383077 -85.45377793 41.71738398 -83.72875977 39.98461914 C-83.17124023 39.42452148 -82.6137207 38.86442383 -82.03930664 38.28735352 C-81.45858398 37.71436523 -80.87786133 37.14137695 -80.27954102 36.55102539 C-79.71041992 35.97416992 -79.14129883 35.39731445 -78.55493164 34.80297852 C-75.42960832 31.692008 -72.47655934 29.26547979 -68.59204102 27.11352539 C-67.93204102 26.45352539 -67.27204102 25.79352539 -66.59204102 25.11352539 C-63.12517007 22.12816429 -59.71197216 20.08392724 -55.59204102 18.11352539 C-54.60204102 17.45352539 -53.61204102 16.79352539 -52.59204102 16.11352539 C-51.60204102 16.11352539 -50.61204102 16.11352539 -49.59204102 16.11352539 C-49.59204102 15.45352539 -49.59204102 14.79352539 -49.59204102 14.11352539 C-46.62204102 13.61852539 -46.62204102 13.61852539 -43.59204102 13.11352539 C-43.59204102 12.45352539 -43.59204102 11.79352539 -43.59204102 11.11352539 C-43.00036133 10.92016602 -42.40868164 10.72680664 -41.79907227 10.52758789 C-36.73931882 8.86268249 -36.73931882 8.86268249 -31.77954102 6.92602539 C-29.59204102 6.11352539 -29.59204102 6.11352539 -25.59204102 6.11352539 C-25.59204102 5.45352539 -25.59204102 4.79352539 -25.59204102 4.11352539 C-24.93083252 4.0278833 -24.26962402 3.94224121 -23.58837891 3.85400391 C-20.60984231 3.46572711 -17.63220116 3.07096489 -14.65454102 2.67602539 C-13.61362305 2.54131836 -12.57270508 2.40661133 -11.50024414 2.26782227 C-10.51088867 2.13569336 -9.5215332 2.00356445 -8.50219727 1.86743164 C-7.58575439 1.74698486 -6.66931152 1.62653809 -5.72509766 1.50244141 C-3.00901093 1.00722266 -2.90534239 0.12724726 0 0 Z " fill="#FBFBFB" transform="translate(138.592041015625,16.886474609375)"/>
<path d="M0 0 C1.12591553 0.00523682 2.25183105 0.01047363 3.41186523 0.01586914 C4.62680664 0.0190918 5.84174805 0.02231445 7.09350586 0.02563477 C8.37290039 0.03401367 9.65229492 0.04239258 10.97045898 0.05102539 C12.2537207 0.05553711 13.53698242 0.06004883 14.85913086 0.06469727 C18.04211921 0.07652994 21.22501661 0.09301471 24.40795898 0.11352539 C24.40795898 0.77352539 24.40795898 1.43352539 24.40795898 2.11352539 C24.99061523 2.09032227 25.57327148 2.06711914 26.17358398 2.04321289 C33.10875001 1.890552 39.6067451 2.80470073 46.40795898 4.11352539 C46.40795898 4.77352539 46.40795898 5.43352539 46.40795898 6.11352539 C47.58358398 6.21665039 48.75920898 6.31977539 49.97045898 6.42602539 C54.24914297 6.94948141 57.51904725 8.28344928 61.40795898 10.11352539 C62.39795898 10.44352539 63.38795898 10.77352539 64.40795898 11.11352539 C64.40795898 11.77352539 64.40795898 12.43352539 64.40795898 13.11352539 C66.38795898 13.44352539 68.36795898 13.77352539 70.40795898 14.11352539 C70.40795898 14.77352539 70.40795898 15.43352539 70.40795898 16.11352539 C71.12983398 16.21665039 71.85170898 16.31977539 72.59545898 16.42602539 C78.09521737 17.77041077 83.04115392 21.55669224 87.40795898 25.11352539 C87.73795898 25.77352539 88.06795898 26.43352539 88.40795898 27.11352539 C89.39795898 27.44352539 90.38795898 27.77352539 91.40795898 28.11352539 C91.40795898 28.77352539 91.40795898 29.43352539 91.40795898 30.11352539 C91.98843994 30.20649902 92.5689209 30.29947266 93.16699219 30.39526367 C95.94130701 31.28447101 97.21362094 32.54640317 99.26342773 34.60571289 C99.96790039 35.31083008 100.67237305 36.01594727 101.39819336 36.74243164 C102.12329102 37.48364258 102.84838867 38.22485352 103.59545898 38.98852539 C104.3321582 39.72200195 105.06885742 40.45547852 105.82788086 41.21118164 C111.27438438 46.71280157 111.27438438 46.71280157 112.40795898 50.11352539 C113.39795898 50.77352539 114.38795898 51.43352539 115.40795898 52.11352539 C115.40795898 52.77352539 115.40795898 53.43352539 115.40795898 54.11352539 C116.06795898 54.44352539 116.72795898 54.77352539 117.40795898 55.11352539 C119.40795898 58.11352539 119.40795898 58.11352539 119.40795898 61.11352539 C120.39795898 61.44352539 121.38795898 61.77352539 122.40795898 62.11352539 C123.57592773 63.63696289 123.57592773 63.63696289 124.59545898 65.48852539 C124.93963867 66.09438477 125.28381836 66.70024414 125.63842773 67.32446289 C126.40795898 69.11352539 126.40795898 69.11352539 126.40795898 72.11352539 C127.06795898 72.11352539 127.72795898 72.11352539 128.40795898 72.11352539 C128.73795898 74.09352539 129.06795898 76.07352539 129.40795898 78.11352539 C130.06795898 78.11352539 130.72795898 78.11352539 131.40795898 78.11352539 C132.6008331 81.99036626 133.40795898 85.02974463 133.40795898 89.11352539 C134.06795898 89.11352539 134.72795898 89.11352539 135.40795898 89.11352539 C135.73795898 92.41352539 136.06795898 95.71352539 136.40795898 99.11352539 C137.06795898 99.11352539 137.72795898 99.11352539 138.40795898 99.11352539 C139.87037966 106.86577479 140.73993048 114.49625839 141.16186523 122.37524414 C141.10504673 125.02427134 141.10504673 125.02427134 142.40795898 126.11352539 C142.50425496 127.85979063 142.52983437 129.60998444 142.5282135 131.35890198 C142.5302755 133.06483017 142.5302755 133.06483017 142.53237915 134.80522156 C142.52878387 136.06397598 142.5251886 137.32273041 142.52148438 138.61962891 C142.5216304 139.93650696 142.52177643 141.25338501 142.52192688 142.61016846 C142.52221485 146.23190807 142.51631822 149.85361485 142.50935292 153.4753468 C142.50311928 157.25634423 142.50251558 161.03734234 142.50132751 164.81834412 C142.49821423 171.98296829 142.49000088 179.14757729 142.47997802 186.31219476 C142.4688168 194.46683701 142.46330642 202.62147996 142.45828259 210.77612793 C142.44781826 227.55526932 142.43021887 244.33439542 142.40795898 261.11352539 C141.74795898 261.11352539 141.08795898 261.11352539 140.40795898 261.11352539 C140.40795898 261.77352539 140.40795898 262.43352539 140.40795898 263.11352539 C92.55795898 263.11352539 44.70795898 263.11352539 -4.59204102 263.11352539 C-4.59204102 262.45352539 -4.59204102 261.79352539 -4.59204102 261.11352539 C-6.35547852 261.14446289 -6.35547852 261.14446289 -8.15454102 261.17602539 C-15.07572706 261.13966189 -20.59990314 259.83986299 -26.94750977 257.16821289 C-31.07435732 255.5223505 -35.31797594 254.31390111 -39.59204102 253.11352539 C-39.59204102 252.45352539 -39.59204102 251.79352539 -39.59204102 251.11352539 C-41.90204102 250.78352539 -44.21204102 250.45352539 -46.59204102 250.11352539 C-46.59204102 249.45352539 -46.59204102 248.79352539 -46.59204102 248.11352539 C-47.37579102 247.96915039 -48.15954102 247.82477539 -48.96704102 247.67602539 C-51.59204102 247.11352539 -51.59204102 247.11352539 -53.59204102 246.11352539 C-53.59204102 245.45352539 -53.59204102 244.79352539 -53.59204102 244.11352539 C-54.29329102 244.03102539 -54.99454102 243.94852539 -55.71704102 243.86352539 C-59.28238622 242.93343534 -61.68219673 241.3466617 -64.59204102 239.11352539 C-64.59204102 238.45352539 -64.59204102 237.79352539 -64.59204102 237.11352539 C-65.47569336 236.95303711 -65.47569336 236.95303711 -66.37719727 236.78930664 C-68.88061489 236.02547728 -70.1068868 235.05494783 -72.02954102 233.30102539 C-74.05725998 231.48083417 -76.04576773 229.76782885 -78.21704102 228.11352539 C-80.19569051 226.44729424 -81.66137544 224.91217031 -83.27954102 222.92602539 C-85.28594352 220.09705306 -85.28594352 220.09705306 -87.59204102 219.11352539 C-88.59204102 217.44685872 -89.59204102 215.78019206 -90.59204102 214.11352539 C-91.47237449 213.03814797 -92.36875937 211.97573983 -93.27954102 210.92602539 C-95.59204102 208.11352539 -95.59204102 208.11352539 -95.59204102 206.11352539 C-96.25204102 206.11352539 -96.91204102 206.11352539 -97.59204102 206.11352539 C-97.92204102 205.12352539 -98.25204102 204.13352539 -98.59204102 203.11352539 C-99.25204102 202.78352539 -99.91204102 202.45352539 -100.59204102 202.11352539 C-102.16752785 199.48771401 -102.59204102 198.24252752 -102.59204102 195.11352539 C-103.25204102 195.11352539 -103.91204102 195.11352539 -104.59204102 195.11352539 C-104.92204102 193.13352539 -105.25204102 191.15352539 -105.59204102 189.11352539 C-106.25204102 189.11352539 -106.91204102 189.11352539 -107.59204102 189.11352539 C-108.84869079 186.20752278 -109.59204102 184.31747955 -109.59204102 181.11352539 C-110.25204102 181.11352539 -110.91204102 181.11352539 -111.59204102 181.11352539 C-111.92204102 178.14352539 -112.25204102 175.17352539 -112.59204102 172.11352539 C-113.25204102 172.11352539 -113.91204102 172.11352539 -114.59204102 172.11352539 C-116.05874215 166.8884026 -116.81781504 162.53210199 -116.59204102 157.11352539 C-117.25204102 157.11352539 -117.91204102 157.11352539 -118.59204102 157.11352539 C-119.45286564 151.91181948 -119.73916588 146.91989444 -119.72485352 141.65258789 C-119.72581024 140.86258392 -119.72676697 140.07257996 -119.72775269 139.25863647 C-119.72842956 137.59633301 -119.72660983 135.93402682 -119.72241211 134.27172852 C-119.71707125 131.75278663 -119.72236653 129.2340242 -119.72875977 126.71508789 C-119.72809862 125.0900875 -119.7268167 123.46508723 -119.72485352 121.84008789 C-119.72687775 121.09916901 -119.72890198 120.35825012 -119.73098755 119.59487915 C-119.70803355 114.37009517 -119.23679174 109.29906276 -118.59204102 104.11352539 C-117.93204102 104.11352539 -117.27204102 104.11352539 -116.59204102 104.11352539 C-116.53145508 103.36586914 -116.47086914 102.61821289 -116.40844727 101.84790039 C-116.3246582 100.86305664 -116.24086914 99.87821289 -116.15454102 98.86352539 C-116.07333008 97.88899414 -115.99211914 96.91446289 -115.90844727 95.91040039 C-115.64129518 93.54890786 -115.23832133 91.39451474 -114.59204102 89.11352539 C-113.93204102 89.11352539 -113.27204102 89.11352539 -112.59204102 89.11352539 C-112.26204102 86.80352539 -111.93204102 84.49352539 -111.59204102 82.11352539 C-110.93204102 82.11352539 -110.27204102 82.11352539 -109.59204102 82.11352539 C-108.93204102 78.81352539 -108.27204102 75.51352539 -107.59204102 72.11352539 C-106.93204102 72.11352539 -106.27204102 72.11352539 -105.59204102 72.11352539 C-105.26204102 70.79352539 -104.93204102 69.47352539 -104.59204102 68.11352539 C-103.93204102 68.11352539 -103.27204102 68.11352539 -102.59204102 68.11352539 C-102.46829102 67.14415039 -102.34454102 66.17477539 -102.21704102 65.17602539 C-102.01079102 64.16540039 -101.80454102 63.15477539 -101.59204102 62.11352539 C-100.60204102 61.61852539 -100.60204102 61.61852539 -99.59204102 61.11352539 C-98.26190346 58.8702901 -97.09689293 56.56343995 -95.90844727 54.24243164 C-94.59204102 52.11352539 -94.59204102 52.11352539 -91.59204102 50.11352539 C-91.26204102 49.12352539 -90.93204102 48.13352539 -90.59204102 47.11352539 C-89.93204102 47.11352539 -89.27204102 47.11352539 -88.59204102 47.11352539 C-88.32109619 46.51805908 -88.05015137 45.92259277 -87.77099609 45.30908203 C-86.60831419 43.14383077 -85.45377793 41.71738398 -83.72875977 39.98461914 C-83.17124023 39.42452148 -82.6137207 38.86442383 -82.03930664 38.28735352 C-81.45858398 37.71436523 -80.87786133 37.14137695 -80.27954102 36.55102539 C-79.71041992 35.97416992 -79.14129883 35.39731445 -78.55493164 34.80297852 C-75.42960832 31.692008 -72.47655934 29.26547979 -68.59204102 27.11352539 C-67.93204102 26.45352539 -67.27204102 25.79352539 -66.59204102 25.11352539 C-63.12517007 22.12816429 -59.71197216 20.08392724 -55.59204102 18.11352539 C-54.60204102 17.45352539 -53.61204102 16.79352539 -52.59204102 16.11352539 C-51.60204102 16.11352539 -50.61204102 16.11352539 -49.59204102 16.11352539 C-49.59204102 15.45352539 -49.59204102 14.79352539 -49.59204102 14.11352539 C-46.62204102 13.61852539 -46.62204102 13.61852539 -43.59204102 13.11352539 C-43.59204102 12.45352539 -43.59204102 11.79352539 -43.59204102 11.11352539 C-43.00036133 10.92016602 -42.40868164 10.72680664 -41.79907227 10.52758789 C-36.73931882 8.86268249 -36.73931882 8.86268249 -31.77954102 6.92602539 C-29.59204102 6.11352539 -29.59204102 6.11352539 -25.59204102 6.11352539 C-25.59204102 5.45352539 -25.59204102 4.79352539 -25.59204102 4.11352539 C-24.93083252 4.0278833 -24.26962402 3.94224121 -23.58837891 3.85400391 C-20.60984231 3.46572711 -17.63220116 3.07096489 -14.65454102 2.67602539 C-13.61362305 2.54131836 -12.57270508 2.40661133 -11.50024414 2.26782227 C-10.51088867 2.13569336 -9.5215332 2.00356445 -8.50219727 1.86743164 C-7.58575439 1.74698486 -6.66931152 1.62653809 -5.72509766 1.50244141 C-3.00901093 1.00722266 -2.90534239 0.12724726 0 0 Z M-33.59204102 34.11352539 C-33.59204102 34.77352539 -33.59204102 35.43352539 -33.59204102 36.11352539 C-34.39641602 36.15477539 -35.20079102 36.19602539 -36.02954102 36.23852539 C-40.30208845 37.28792301 -43.08090642 39.22129411 -46.63891602 41.73852539 C-48.59204102 43.11352539 -48.59204102 43.11352539 -50.59204102 44.11352539 C-50.59204102 44.77352539 -50.59204102 45.43352539 -50.59204102 46.11352539 C-51.6497168 46.45383789 -51.6497168 46.45383789 -52.72875977 46.80102539 C-56.1694337 48.37819653 -58.67784791 50.55072465 -61.40454102 53.11352539 C-61.9257251 53.59829346 -62.44690918 54.08306152 -62.98388672 54.58251953 C-71.81927744 62.61134049 -71.81927744 62.61134049 -76.59204102 73.11352539 C-77.25204102 73.11352539 -77.91204102 73.11352539 -78.59204102 73.11352539 C-83.11118522 78.99578102 -85.4212357 84.85453242 -86.59204102 92.11352539 C-87.25204102 92.11352539 -87.91204102 92.11352539 -88.59204102 92.11352539 C-91.10892488 98.17660697 -92.43556929 103.86413273 -93.27954102 110.36352539 C-93.40474121 111.32226562 -93.52994141 112.28100586 -93.65893555 113.26879883 C-96.0000606 132.64121049 -95.49112241 152.14559537 -87.77563477 170.31665039 C-86.55214968 173.20779005 -85.5512111 176.12551166 -84.59204102 179.11352539 C-83.93204102 179.11352539 -83.27204102 179.11352539 -82.59204102 179.11352539 C-82.32391602 179.81477539 -82.05579102 180.51602539 -81.77954102 181.23852539 C-79.42823096 186.93117079 -76.55203538 191.81586194 -72.77954102 196.67602539 C-72.36639648 197.22709961 -71.95325195 197.77817383 -71.52758789 198.34594727 C-68.56986352 202.1877988 -65.38385145 205.09480252 -61.59204102 208.11352539 C-60.47829102 209.25821289 -60.47829102 209.25821289 -59.34204102 210.42602539 C-57.75727313 212.34490391 -57.75727313 212.34490391 -55.59204102 212.11352539 C-55.34454102 212.71680664 -55.09704102 213.32008789 -54.84204102 213.94165039 C-53.38644129 216.47075492 -52.08079893 217.38125046 -49.59204102 218.86352539 C-48.89079102 219.29149414 -48.18954102 219.71946289 -47.46704102 220.16040039 C-45.64545366 221.26457427 -45.64545366 221.26457427 -43.59204102 221.11352539 C-43.59204102 221.77352539 -43.59204102 222.43352539 -43.59204102 223.11352539 C-38.45496353 225.87232626 -33.61527821 227.77322986 -28.00610352 229.33227539 C-25.763504 230.05803575 -23.99502488 230.93425724 -21.96704102 232.11352539 C-7.73164981 239.38157702 10.35310261 237.50406947 25.78295898 237.40649414 C28.40567785 237.4008883 31.02839989 237.39662288 33.65112305 237.39363098 C39.80596372 237.38438201 45.96064063 237.35986742 52.11540985 237.32958251 C59.13376193 237.29581297 66.15212268 237.27949638 73.17053604 237.26449621 C87.58309403 237.23330959 101.99552421 237.18069155 116.40795898 237.11352539 C116.59692601 222.39428251 116.73691319 207.6752052 116.82245636 192.95498562 C116.86327564 186.11621725 116.91886898 179.27822016 117.01147461 172.43994141 C118.09021563 130.0366548 118.09021563 130.0366548 108.40795898 89.11352539 C107.74795898 89.11352539 107.08795898 89.11352539 106.40795898 89.11352539 C106.29581055 87.83155273 106.29581055 87.83155273 106.18139648 86.52368164 C105.2712154 82.5106105 103.44383128 79.78968137 101.03295898 76.55102539 C96.59745618 70.43432394 96.59745618 70.43432394 94.86889648 67.50805664 C89.65270308 58.9585204 81.51629611 51.8517332 73.40795898 46.11352539 C72.74795898 46.11352539 72.08795898 46.11352539 71.40795898 46.11352539 C71.40795898 45.45352539 71.40795898 44.79352539 71.40795898 44.11352539 C62.31417978 38.54393114 53.60056201 34.37814885 43.40795898 31.11352539 C41.76186093 30.55180054 40.11598957 29.98941044 38.47045898 29.42602539 C37.12095635 28.97434381 35.76613486 28.53841585 34.40795898 28.11352539 C33.36881348 27.77651611 32.32966797 27.43950684 31.2590332 27.09228516 C27.3122748 26.08920703 23.67158454 25.79082843 19.63061523 25.77758789 C18.90160507 25.77093109 18.17259491 25.76427429 17.42149353 25.75741577 C15.88274633 25.74734258 14.34395592 25.74259709 12.80517578 25.74291992 C10.50727445 25.73859469 8.21137472 25.70235629 5.91381836 25.66430664 C-8.08922003 25.55811604 -20.7545871 28.31198372 -33.59204102 34.11352539 Z " fill="#13171A" transform="translate(138.592041015625,16.886474609375)"/>
<path d="M0 0 C13.37123378 -0.84747256 22.5631608 -0.32647998 34 7 C34.89460938 7.52207031 35.78921875 8.04414062 36.7109375 8.58203125 C41.38301558 11.47616835 44.34759744 14.74235549 46 20 C46.66 20 47.32 20 48 20 C48.66193086 21.15760932 49.30354146 22.3268383 49.9375 23.5 C50.47697266 24.47453125 50.47697266 24.47453125 51.02734375 25.46875 C52 28 52 28 53 36 C45.08 36 37.16 36 29 36 C28.01 33.69 27.02 31.38 26 29 C24.41377873 27.22665369 24.41377873 27.22665369 22.5625 26.125 C21.98628906 25.73570312 21.41007812 25.34640625 20.81640625 24.9453125 C13.60999043 21.19487674 4.45278771 22.69148832 -3 25 C-6.52956483 26.54849469 -7.46844086 27.45826949 -9 31 C-9.680625 32.093125 -10.36125 33.18625 -11.0625 34.3125 C-13.09629908 37.88865973 -13.72337243 40.85058646 -14 45 C-14.06316406 45.825 -14.12632813 46.65 -14.19140625 47.5 C-14.58911679 56.53187809 -12.21168189 65.37500861 -6.52734375 72.5625 C-1.11002408 77.6611538 5.25193389 78.4407612 12.421875 78.3359375 C17.1851436 77.71526917 20.33169178 76.08855507 23.6875 72.6875 C24.26886719 72.11386719 24.85023438 71.54023438 25.44921875 70.94921875 C27.4046105 68.6830915 27.4046105 68.6830915 29 64 C36.92 64 44.84 64 53 64 C52.34 67.63 51.68 71.26 51 75 C50.34 75 49.68 75 49 75 C48.79375 75.66 48.5875 76.32 48.375 77 C43.59843403 87.42159848 34.39308162 94.51776033 24 99 C19.17121026 100.10057886 14.4264394 100.18317097 9.5 100.1875 C8.76652344 100.19974609 8.03304687 100.21199219 7.27734375 100.22460938 C2.769059 100.23670674 -0.74622216 99.65424694 -5 98 C-5.75023438 97.78859375 -6.50046875 97.5771875 -7.2734375 97.359375 C-15.96121296 94.84024308 -22.89606538 89.50123725 -28 82 C-28 81.34 -28 80.68 -28 80 C-28.66 80 -29.32 80 -30 80 C-31.4606285 77.35261084 -32 76.10551666 -32 73 C-32.66 73 -33.32 73 -34 73 C-37.50778966 57.11054804 -40.75795754 37.71293652 -31.75 23.0859375 C-28.12444205 17.70508394 -24.38739261 12.75291248 -19 9 C-18.34 9 -17.68 9 -17 9 C-17 8.34 -17 7.68 -17 7 C-16.030625 6.71125 -15.06125 6.4225 -14.0625 6.125 C-10.89335797 5.35785318 -10.89335797 5.35785318 -10 3 C-7.71484375 2.5859375 -7.71484375 2.5859375 -4.9375 2.375 C-4.01839844 2.30023438 -3.09929687 2.22546875 -2.15234375 2.1484375 C-1.44207031 2.09945312 -0.73179688 2.05046875 0 2 C0 1.34 0 0.68 0 0 Z " fill="#171B1E" transform="translate(109,103)"/>
<path d="M0 0 C0 7.26 0 14.52 0 22 C-7.5625 22.8125 -7.5625 22.8125 -9.90063477 23.04614258 C-15.37147553 23.68407036 -20.53419205 24.76639818 -24.7421875 28.578125 C-25.11601562 29.12984375 -25.48984375 29.6815625 -25.875 30.25 C-26.26429688 30.79140625 -26.65359375 31.3328125 -27.0546875 31.890625 C-30.00587745 38.47592488 -29.21542667 46.66407192 -29.31640625 53.71484375 C-29.33718735 54.92572159 -29.35796844 56.13659943 -29.37937927 57.38417053 C-29.44453024 61.2352251 -29.50359914 65.08634527 -29.5625 68.9375 C-29.605718 71.55534521 -29.64933332 74.17318388 -29.69335938 76.79101562 C-29.80017619 83.19394195 -29.90200535 89.5969329 -30 96 C-33.81248426 96.02887236 -37.6249407 96.04675492 -41.4375 96.0625 C-42.52611328 96.07087891 -43.61472656 96.07925781 -44.73632812 96.08789062 C-45.77080078 96.09111328 -46.80527344 96.09433594 -47.87109375 96.09765625 C-48.82943115 96.10289307 -49.78776855 96.10812988 -50.77514648 96.11352539 C-53 96 -53 96 -54 95 C-54.09525367 92.07805335 -54.12552736 89.17979671 -54.11352539 86.25756836 C-54.11367142 85.3405867 -54.11381744 84.42360504 -54.1139679 83.47883606 C-54.1132684 80.43248164 -54.10547428 77.38618755 -54.09765625 74.33984375 C-54.0957922 72.23377007 -54.09436824 70.12769597 -54.09336853 68.0216217 C-54.08954231 62.46657117 -54.07971114 56.91154659 -54.06866455 51.35650635 C-54.05845267 45.6927526 -54.05387139 40.02899467 -54.04882812 34.36523438 C-54.03808896 23.24347631 -54.02049132 12.12174437 -54 1 C-46.41 1 -38.82 1 -31 1 C-31 3.64 -31 6.28 -31 9 C-30.071875 8.175 -29.14375 7.35 -28.1875 6.5 C-25.375 4 -25.375 4 -22 4 C-22 3.34 -22 2.68 -22 2 C-14.60389314 -0.3667542 -7.74743917 -0.14898921 0 0 Z " fill="#1A1E21" transform="translate(225,105)"/>
<path d="M0 0 C0 7.26 0 14.52 0 22 C-7.75 22.9375 -7.75 22.9375 -10.17089844 23.22631836 C-13.51629593 23.63796236 -16.74433727 24.13541252 -20 25 C-20 24.34 -20 23.68 -20 23 C-16.04 22.505 -16.04 22.505 -12 22 C-12 21.34 -12 20.68 -12 20 C-8.37 20 -4.74 20 -1 20 C-1 13.73 -1 7.46 -1 1 C-11.395 1.99 -11.395 1.99 -22 3 C-15.43111927 -1.37925382 -7.6152456 -0.07117052 0 0 Z " fill="#505355" transform="translate(225,105)"/>
<path d="M0 0 C0.66 0.33 1.32 0.66 2 1 C-3.61 6.61 -9.22 12.22 -15 18 C-15.66 17.67 -16.32 17.34 -17 17 C-15.29657414 15.09955869 -13.58752883 13.20471126 -11.875 11.3125 C-11.400625 10.78205078 -10.92625 10.25160156 -10.4375 9.70507812 C-7.18500869 6.12294242 -3.77952775 3.02250068 0 0 Z " fill="#C8C9CA" transform="translate(84,64)"/>
<path d="M0 0 C0.6875 1.6875 0.6875 1.6875 1 4 C-0.43529504 7.34902175 -1.38699926 8.70062755 -4.6875 10.3125 C-5.450625 10.539375 -6.21375 10.76625 -7 11 C-6.21625 10.113125 -5.4325 9.22625 -4.625 8.3125 C-2.42843009 5.69279481 -1.06209659 3.28284399 0 0 Z " fill="#535658" transform="translate(138,167)"/>
<path d="M0 0 C-1.49097658 3.7952131 -3.75700849 5.61042731 -7 8 C-4.18918919 0 -4.18918919 0 0 0 Z " fill="#D5D6D6" transform="translate(205,130)"/>
</svg>
